<?xml version="1.0" standalone="no"?>
<!DOCTYPE svg PUBLIC "-//W3C//DTD SVG 20010904//EN"
 "http://www.w3.org/TR/2001/REC-SVG-20010904/DTD/svg10.dtd">
<svg version="1.0" xmlns="http://www.w3.org/2000/svg"
 width="512.000000pt" height="512.000000pt" viewBox="0 0 512.000000 512.000000"
 preserveAspectRatio="xMidYMid meet">
<metadata>
Created by potrace 1.11, written by Peter Selinger 2001-2013
</metadata>
<g transform="translate(0.000000,512.000000) scale(0.100000,-0.100000)"
fill="#000000" stroke="none">
<path d="M3765 5030 c-237 -35 -466 -150 -636 -321 -164 -165 -274 -374 -313
-596 -13 -77 -14 -316 -2 -378 31 -148 84 -276 159 -387 l45 -68 -210 0 -210
0 24 33 c111 145 126 352 38 515 -33 62 -36 52 43 175 l50 79 -215 215 -215
215 -57 -36 c-31 -20 -59 -36 -62 -36 -2 0 -17 -9 -32 -20 l-28 -21 -74 35
c-41 19 -102 43 -135 54 l-60 21 -25 103 -26 103 -304 0 -304 0 -24 -100 c-12
-54 -28 -103 -35 -107 -7 -4 -34 -15 -62 -24 -27 -9 -83 -31 -124 -50 l-74
-34 -89 57 -90 56 -215 -216 -216 -215 57 -90 57 -90 -34 -69 c-18 -37 -41
-93 -50 -123 -10 -30 -21 -60 -25 -67 -4 -7 -53 -23 -107 -35 l-100 -24 0
-304 0 -305 75 -17 c41 -10 86 -20 99 -23 29 -5 35 -14 57 -80 9 -27 31 -83
50 -124 l34 -74 -57 -89 -56 -90 215 -215 216 -216 90 57 91 56 67 -31 c37
-17 96 -42 131 -55 36 -12 67 -24 68 -26 2 -2 14 -48 27 -103 23 -94 26 -100
51 -103 31 -4 33 -14 13 -74 -7 -24 -25 -86 -40 -138 -14 -52 -46 -169 -71
-260 -26 -91 -48 -172 -50 -180 -2 -8 -25 -89 -50 -180 -25 -91 -48 -174 -50
-184 -6 -26 -53 -195 -64 -231 -36 -111 -53 -204 -47 -253 12 -104 61 -180
148 -228 46 -25 63 -29 128 -28 56 0 85 5 115 21 51 27 101 77 125 124 11 20
62 193 115 385 53 192 111 403 130 469 18 66 48 173 66 238 l32 117 209 0 208
0 0 -558 c0 -626 0 -625 69 -703 56 -64 111 -91 197 -95 61 -3 78 1 130 25 64
31 109 74 139 136 19 39 20 64 20 745 l0 705 -31 65 c-68 141 -188 226 -335
236 -41 3 -79 7 -85 9 -8 2 -7 25 4 79 l15 76 538 0 539 0 0 -531 0 -531 278
-463 c152 -256 279 -464 282 -464 4 -1 103 162 203 332 11 17 95 158 188 313
l169 282 0 949 0 948 38 21 c104 60 254 196 327 299 136 190 197 392 190 635
-8 299 -116 551 -325 760 -159 158 -342 258 -564 306 -78 18 -303 26 -381 14z
m387 -179 c355 -94 622 -367 704 -721 18 -79 25 -264 12 -355 -17 -130 -91
-292 -184 -406 -65 -80 -133 -139 -231 -203 l-72 -46 -109 0 c-98 0 -110 2
-108 17 1 11 26 28 71 48 223 98 384 283 457 525 16 52 21 101 23 243 5 227 3
234 -118 396 -133 177 -245 266 -406 323 -341 119 -726 -2 -924 -292 -17 -25
-45 -62 -63 -84 -68 -80 -78 -114 -80 -291 -3 -168 7 -251 45 -358 39 -112
109 -218 205 -309 l60 -58 -99 0 -99 0 -44 48 c-148 161 -221 340 -227 562 -8
274 77 496 265 693 142 150 341 253 560 290 67 11 288 -2 362 -22z m-2442
-795 c71 -19 149 -49 188 -74 l31 -18 -39 -39 c-42 -41 -91 -126 -110 -192
l-13 -42 -38 20 c-142 72 -342 59 -474 -31 -97 -66 -179 -187 -204 -300 -24
-109 0 -247 62 -353 56 -95 196 -195 299 -212 37 -7 39 -9 32 -34 -4 -14 -19
-84 -33 -156 l-26 -130 -30 4 c-48 5 -186 59 -242 94 -257 160 -400 423 -389
717 8 212 87 391 236 539 64 63 204 157 250 168 14 3 30 9 35 13 8 7 84 26
170 44 43 8 243 -3 295 -18z m665 -167 c63 -31 125 -93 155 -155 33 -70 34
-199 2 -265 -122 -247 -459 -249 -582 -3 -34 67 -35 196 -2 264 25 51 73 108
117 137 84 57 220 66 310 22z m-760 -307 c89 -25 139 -71 185 -170 27 -58 84
-142 102 -150 11 -5 10 -22 -2 -22 -21 0 -129 -55 -185 -95 -58 -41 -133 -115
-167 -164 -14 -19 -23 -22 -56 -18 -163 18 -282 143 -288 301 -3 81 14 139 58
204 32 46 113 104 169 121 47 13 124 11 184 -7z m2042 -485 c28 -27 24 -94 -7
-118 -24 -18 -51 -19 -625 -19 -382 0 -614 -4 -637 -10 -87 -25 -159 -112
-173 -210 -7 -52 -4 -32 -50 -310 -34 -204 -39 -230 -50 -290 -12 -65 -45
-276 -45 -287 0 -10 34 -13 138 -13 172 0 222 -13 281 -72 73 -74 72 -58 69
-801 l-3 -657 -33 -32 c-28 -28 -39 -33 -82 -33 -43 0 -54 5 -82 33 l-33 32
-5 594 c-5 584 -5 595 -26 623 -11 15 -35 38 -53 50 -31 21 -41 22 -309 23
-163 0 -293 5 -317 11 -139 38 -204 181 -165 366 10 46 87 450 96 503 50 285
83 367 189 473 60 60 82 75 150 108 125 59 98 58 962 56 742 -2 793 -3 810
-20z m663 -217 l0 -80 -337 1 c-186 0 -331 3 -323 6 68 23 139 84 155 132 6
21 11 21 256 21 l249 0 0 -80z m-960 -160 l0 -80 -501 0 -501 0 5 23 c3 12 9
39 12 60 5 22 17 45 32 57 25 19 42 20 489 20 l464 0 0 -80z m480 -765 l0
-686 -75 51 c-41 27 -79 50 -85 50 -6 0 -44 -23 -85 -50 l-75 -51 0 686 0 685
160 0 160 0 0 -685z m480 0 l0 -686 -75 51 c-41 27 -80 50 -88 50 -8 0 -24 -9
-37 -20 -13 -11 -27 -20 -31 -20 -4 0 -14 -6 -21 -13 -7 -7 -25 -20 -40 -30
l-28 -17 0 685 0 685 160 0 160 0 0 -685z m-960 445 l0 -80 -526 0 -526 0 5
29 c3 15 9 51 13 80 l7 51 513 0 514 0 0 -80z m-1842 -922 c56 -26 62 -31 56
-51 -7 -22 -31 -109 -39 -137 -4 -19 -23 -88 -75 -275 -23 -82 -46 -163 -50
-180 -19 -77 -141 -507 -150 -529 -18 -49 -101 -79 -150 -54 -13 7 -35 29 -48
48 -20 29 -23 43 -18 85 3 28 13 73 22 100 8 28 17 57 19 65 2 8 23 83 45 165
23 83 55 197 70 255 16 58 58 209 93 335 35 127 67 242 71 256 l6 26 42 -40
c23 -22 71 -53 106 -69z m2286 -378 c58 -38 110 -70 116 -70 5 0 62 34 125 76
l114 77 66 -43 c36 -24 64 -46 63 -50 -2 -4 -41 -71 -88 -148 l-85 -142 -195
0 -195 0 -85 142 c-47 79 -85 146 -85 150 0 13 119 88 132 83 7 -2 60 -36 117
-75z m168 -539 c-44 -74 -48 -78 -64 -64 -10 9 -18 20 -18 24 0 5 -16 33 -35
64 l-36 55 100 0 100 0 -47 -79z"/>
</g>
</svg>
